<?xml version="1.0" encoding="UTF-8"?>
<!DOCTYPE svg
PUBLIC "-//W3C//DTD SVG 1.1//EN"
       "http://www.w3.org/Graphics/SVG/1.1/DTD/svg11.dtd">
<svg viewBox="13 -15 1166 713" width="1153px" height="728px" xmlns="http://www.w3.org/2000/svg" version="1.1">
   <line x1="142" y1="258" x2="152" y2="258" style="stroke:#cb0;stroke-width:1;"/>
   <line x1="624" y1="30" x2="634" y2="30" style="stroke:#cb0;stroke-width:1;"/>
   <line x1="152" y1="258" x2="624" y2="30" style="stroke:#cb0;stroke-width:1;"/>
   <line x1="149.5" y1="258" x2="145.96446609407" y2="261.53553390593" style="stroke:#cb0;stroke-width:2;"/>
   <line x1="149.5" y1="258" x2="145.96446609407" y2="254.46446609407" style="stroke:#cb0;stroke-width:2;"/>
   <line x1="629" y1="30" x2="625.46446609407" y2="33.535533905933" style="stroke:#cb0;stroke-width:2;"/>
   <line x1="629" y1="30" x2="625.46446609407" y2="26.464466094067" style="stroke:#cb0;stroke-width:2;"/>
   <line x1="662" y1="303" x2="652" y2="303" style="stroke:#b0b;stroke-width:1;"/>
   <line x1="624" y1="30" x2="634" y2="30" style="stroke:#b0b;stroke-width:1;"/>
   <line x1="652" y1="303" x2="624" y2="30" style="stroke:#b0b;stroke-width:1;"/>
   <line x1="654.5" y1="303" x2="658.03553390593" y2="306.53553390593" style="stroke:#b0b;stroke-width:2;"/>
   <line x1="654.5" y1="303" x2="658.03553390593" y2="299.46446609407" style="stroke:#b0b;stroke-width:2;"/>
   <line x1="629" y1="30" x2="625.46446609407" y2="33.535533905933" style="stroke:#b0b;stroke-width:2;"/>
   <line x1="629" y1="30" x2="625.46446609407" y2="26.464466094067" style="stroke:#b0b;stroke-width:2;"/>
   <line x1="980" y1="494" x2="970" y2="494" style="stroke:#cb0;stroke-width:1;"/>
   <line x1="443" y1="200" x2="433" y2="200" style="stroke:#cb0;stroke-width:1;"/>
   <line x1="970" y1="494" x2="443" y2="200" style="stroke:#cb0;stroke-width:1;"/>
   <line x1="972.5" y1="494" x2="976.03553390593" y2="497.53553390593" style="stroke:#cb0;stroke-width:2;"/>
   <line x1="972.5" y1="494" x2="976.03553390593" y2="490.46446609407" style="stroke:#cb0;stroke-width:2;"/>
   <line x1="438" y1="200" x2="441.53553390593" y2="203.53553390593" style="stroke:#cb0;stroke-width:2;"/>
   <line x1="438" y1="200" x2="441.53553390593" y2="196.46446609407" style="stroke:#cb0;stroke-width:2;"/>
   <line x1="980" y1="554" x2="970" y2="554" style="stroke:#bbb;stroke-width:1;"/>
   <line x1="730" y1="30" x2="720" y2="30" style="stroke:#bbb;stroke-width:1;"/>
   <line x1="970" y1="554" x2="730" y2="30" style="stroke:#bbb;stroke-width:1;"/>
   <line x1="972.5" y1="554" x2="976.03553390593" y2="557.53553390593" style="stroke:#bbb;stroke-width:2;"/>
   <line x1="972.5" y1="554" x2="976.03553390593" y2="550.46446609407" style="stroke:#bbb;stroke-width:2;"/>
   <line x1="725" y1="30" x2="728.53553390593" y2="33.535533905933" style="stroke:#bbb;stroke-width:2;"/>
   <line x1="725" y1="30" x2="728.53553390593" y2="26.464466094067" style="stroke:#bbb;stroke-width:2;"/>
   <line x1="1026" y1="300" x2="1016" y2="300" style="stroke:#0bf;stroke-width:1;"/>
   <line x1="970" y1="474" x2="980" y2="474" style="stroke:#0bf;stroke-width:1;"/>
   <line x1="1016" y1="300" x2="970" y2="474" style="stroke:#0bf;stroke-width:1;"/>
   <line x1="1018.5" y1="300" x2="1022.0355339059" y2="303.53553390593" style="stroke:#0bf;stroke-width:2;"/>
   <line x1="1018.5" y1="300" x2="1022.0355339059" y2="296.46446609407" style="stroke:#0bf;stroke-width:2;"/>
   <line x1="975" y1="474" x2="971.46446609407" y2="477.53553390593" style="stroke:#0bf;stroke-width:2;"/>
   <line x1="975" y1="474" x2="971.46446609407" y2="470.46446609407" style="stroke:#0bf;stroke-width:2;"/>
   <line x1="1026" y1="320" x2="1016" y2="320" style="stroke:#0bf;stroke-width:1;"/>
   <line x1="730" y1="30" x2="720" y2="30" style="stroke:#0bf;stroke-width:1;"/>
   <line x1="1016" y1="320" x2="730" y2="30" style="stroke:#0bf;stroke-width:1;"/>
   <line x1="1018.5" y1="320" x2="1022.0355339059" y2="323.53553390593" style="stroke:#0bf;stroke-width:2;"/>
   <line x1="1018.5" y1="320" x2="1022.0355339059" y2="316.46446609407" style="stroke:#0bf;stroke-width:2;"/>
   <line x1="725" y1="30" x2="728.53553390593" y2="33.535533905933" style="stroke:#0bf;stroke-width:2;"/>
   <line x1="725" y1="30" x2="728.53553390593" y2="26.464466094067" style="stroke:#0bf;stroke-width:2;"/>
   <line x1="789" y1="588" x2="799" y2="588" style="stroke:#bbb;stroke-width:1;"/>
   <line x1="970" y1="474" x2="980" y2="474" style="stroke:#bbb;stroke-width:1;"/>
   <line x1="799" y1="588" x2="970" y2="474" style="stroke:#bbb;stroke-width:1;"/>
   <line x1="796.5" y1="588" x2="792.96446609407" y2="591.53553390593" style="stroke:#bbb;stroke-width:2;"/>
   <line x1="796.5" y1="588" x2="792.96446609407" y2="584.46446609407" style="stroke:#bbb;stroke-width:2;"/>
   <line x1="975" y1="474" x2="971.46446609407" y2="477.53553390593" style="stroke:#bbb;stroke-width:2;"/>
   <line x1="975" y1="474" x2="971.46446609407" y2="470.46446609407" style="stroke:#bbb;stroke-width:2;"/>
   <line x1="716" y1="608" x2="706" y2="608" style="stroke:#c00;stroke-width:1;"/>
   <line x1="730" y1="30" x2="720" y2="30" style="stroke:#c00;stroke-width:1;"/>
   <line x1="706" y1="608" x2="730" y2="30" style="stroke:#c00;stroke-width:1;"/>
   <line x1="708.5" y1="608" x2="712.03553390593" y2="611.53553390593" style="stroke:#c00;stroke-width:2;"/>
   <line x1="708.5" y1="608" x2="712.03553390593" y2="604.46446609407" style="stroke:#c00;stroke-width:2;"/>
   <line x1="725" y1="30" x2="728.53553390593" y2="33.535533905933" style="stroke:#c00;stroke-width:2;"/>
   <line x1="725" y1="30" x2="728.53553390593" y2="26.464466094067" style="stroke:#c00;stroke-width:2;"/>
   <line x1="1145" y1="70" x2="1155" y2="70" style="stroke:#b0b;stroke-width:1;"/>
   <line x1="1112" y1="474" x2="1102" y2="474" style="stroke:#b0b;stroke-width:1;"/>
   <line x1="1155" y1="70" x2="1112" y2="474" style="stroke:#b0b;stroke-width:1;"/>
   <line x1="1152.5" y1="70" x2="1148.9644660941" y2="73.535533905933" style="stroke:#b0b;stroke-width:2;"/>
   <line x1="1152.5" y1="70" x2="1148.9644660941" y2="66.464466094067" style="stroke:#b0b;stroke-width:2;"/>
   <line x1="1107" y1="474" x2="1110.5355339059" y2="477.53553390593" style="stroke:#b0b;stroke-width:2;"/>
   <line x1="1107" y1="474" x2="1110.5355339059" y2="470.46446609407" style="stroke:#b0b;stroke-width:2;"/>
   <line x1="1045" y1="90" x2="1035" y2="90" style="stroke:#c00;stroke-width:1;"/>
   <line x1="138" y1="532" x2="128" y2="532" style="stroke:#c00;stroke-width:1;"/>
   <line x1="1035" y1="90" x2="138" y2="532" style="stroke:#c00;stroke-width:1;"/>
   <line x1="1037.5" y1="90" x2="1041.0355339059" y2="93.535533905933" style="stroke:#c00;stroke-width:2;"/>
   <line x1="1037.5" y1="90" x2="1041.0355339059" y2="86.464466094067" style="stroke:#c00;stroke-width:2;"/>
   <line x1="133" y1="532" x2="136.53553390593" y2="535.53553390593" style="stroke:#c00;stroke-width:2;"/>
   <line x1="133" y1="532" x2="136.53553390593" y2="528.46446609407" style="stroke:#c00;stroke-width:2;"/>
   <line x1="1045" y1="110" x2="1035" y2="110" style="stroke:#0bf;stroke-width:1;"/>
   <line x1="730" y1="30" x2="720" y2="30" style="stroke:#0bf;stroke-width:1;"/>
   <line x1="1035" y1="110" x2="730" y2="30" style="stroke:#0bf;stroke-width:1;"/>
   <line x1="1037.5" y1="110" x2="1041.0355339059" y2="113.53553390593" style="stroke:#0bf;stroke-width:2;"/>
   <line x1="1037.5" y1="110" x2="1041.0355339059" y2="106.46446609407" style="stroke:#0bf;stroke-width:2;"/>
   <line x1="725" y1="30" x2="728.53553390593" y2="33.535533905933" style="stroke:#0bf;stroke-width:2;"/>
   <line x1="725" y1="30" x2="728.53553390593" y2="26.464466094067" style="stroke:#0bf;stroke-width:2;"/>
   <line x1="453" y1="356" x2="463" y2="356" style="stroke:#333;stroke-width:1;"/>
   <line x1="624" y1="30" x2="634" y2="30" style="stroke:#333;stroke-width:1;"/>
   <line x1="463" y1="356" x2="624" y2="30" style="stroke:#333;stroke-width:1;"/>
   <line x1="460.5" y1="356" x2="456.96446609407" y2="359.53553390593" style="stroke:#333;stroke-width:2;"/>
   <line x1="460.5" y1="356" x2="456.96446609407" y2="352.46446609407" style="stroke:#333;stroke-width:2;"/>
   <line x1="629" y1="30" x2="625.46446609407" y2="33.535533905933" style="stroke:#333;stroke-width:2;"/>
   <line x1="629" y1="30" x2="625.46446609407" y2="26.464466094067" style="stroke:#333;stroke-width:2;"/>
   <line x1="522" y1="578" x2="532" y2="578" style="stroke:#b0b;stroke-width:1;"/>
   <line x1="624" y1="30" x2="634" y2="30" style="stroke:#b0b;stroke-width:1;"/>
   <line x1="532" y1="578" x2="624" y2="30" style="stroke:#b0b;stroke-width:1;"/>
   <line x1="529.5" y1="578" x2="525.96446609407" y2="581.53553390593" style="stroke:#b0b;stroke-width:2;"/>
   <line x1="529.5" y1="578" x2="525.96446609407" y2="574.46446609407" style="stroke:#b0b;stroke-width:2;"/>
   <line x1="629" y1="30" x2="625.46446609407" y2="33.535533905933" style="stroke:#b0b;stroke-width:2;"/>
   <line x1="629" y1="30" x2="625.46446609407" y2="26.464466094067" style="stroke:#b0b;stroke-width:2;"/>
   <line x1="165" y1="386" x2="175" y2="386" style="stroke:#333;stroke-width:1;"/>
   <line x1="343" y1="336" x2="353" y2="336" style="stroke:#333;stroke-width:1;"/>
   <line x1="175" y1="386" x2="343" y2="336" style="stroke:#333;stroke-width:1;"/>
   <line x1="172.5" y1="386" x2="168.96446609407" y2="389.53553390593" style="stroke:#333;stroke-width:2;"/>
   <line x1="172.5" y1="386" x2="168.96446609407" y2="382.46446609407" style="stroke:#333;stroke-width:2;"/>
   <line x1="348" y1="336" x2="344.46446609407" y2="339.53553390593" style="stroke:#333;stroke-width:2;"/>
   <line x1="348" y1="336" x2="344.46446609407" y2="332.46446609407" style="stroke:#333;stroke-width:2;"/>
   <rect width="91" height="20" x="51" y="208" style="fill:#007;stroke:black;"/>
   <text width="91" height="20" x="56" y="222" style="fill:#fff;" font-family="Arial" font-size="16px"> activity_logs</text>
   <rect width="91" height="20" x="51" y="228" style="fill:#aea;stroke:black;"/>
   <text width="91" height="20" x="56" y="242" style="fill:black;" font-family="Arial" font-size="16px">log_id</text>
   <rect width="91" height="20" x="51" y="248" style="fill:none;stroke:black;"/>
   <text width="91" height="20" x="56" y="262" style="fill:black;" font-family="Arial" font-size="16px">user_id</text>
   <rect width="91" height="20" x="51" y="268" style="fill:none;stroke:black;"/>
   <text width="91" height="20" x="56" y="282" style="fill:black;" font-family="Arial" font-size="16px">action</text>
   <rect width="91" height="20" x="51" y="288" style="fill:none;stroke:black;"/>
   <text width="91" height="20" x="56" y="302" style="fill:black;" font-family="Arial" font-size="16px">timestamp</text>
   <rect width="99" height="20" x="662" y="253" style="fill:#007;stroke:black;"/>
   <text width="99" height="20" x="667" y="267" style="fill:#fff;" font-family="Arial" font-size="16px"> billing</text>
   <rect width="99" height="20" x="662" y="273" style="fill:#aea;stroke:black;"/>
   <text width="99" height="20" x="667" y="287" style="fill:black;" font-family="Arial" font-size="16px">billing_id</text>
   <rect width="99" height="20" x="662" y="293" style="fill:none;stroke:black;"/>
   <text width="99" height="20" x="667" y="307" style="fill:black;" font-family="Arial" font-size="16px">user_id</text>
   <rect width="99" height="20" x="662" y="313" style="fill:none;stroke:black;"/>
   <text width="99" height="20" x="667" y="327" style="fill:black;" font-family="Arial" font-size="16px">amount_due</text>
   <rect width="99" height="20" x="662" y="333" style="fill:none;stroke:black;"/>
   <text width="99" height="20" x="667" y="347" style="fill:black;" font-family="Arial" font-size="16px">amount_paid</text>
   <rect width="99" height="20" x="662" y="353" style="fill:none;stroke:black;"/>
   <text width="99" height="20" x="667" y="367" style="fill:black;" font-family="Arial" font-size="16px">due_date</text>
   <rect width="99" height="20" x="662" y="373" style="fill:none;stroke:black;"/>
   <text width="99" height="20" x="667" y="387" style="fill:black;" font-family="Arial" font-size="16px">status</text>
   <rect width="99" height="20" x="662" y="393" style="fill:none;stroke:black;"/>
   <text width="99" height="20" x="667" y="407" style="fill:black;" font-family="Arial" font-size="16px">created_at</text>
   <rect width="99" height="20" x="662" y="413" style="fill:none;stroke:black;"/>
   <text width="99" height="20" x="667" y="427" style="fill:black;" font-family="Arial" font-size="16px">updated_at</text>
   <rect width="122" height="20" x="980" y="444" style="fill:#007;stroke:black;"/>
   <text width="122" height="20" x="985" y="458" style="fill:#fff;" font-family="Arial" font-size="16px"> cases</text>
   <rect width="122" height="20" x="980" y="464" style="fill:#aea;stroke:black;"/>
   <text width="122" height="20" x="985" y="478" style="fill:black;" font-family="Arial" font-size="16px">case_id</text>
   <rect width="122" height="20" x="980" y="484" style="fill:none;stroke:black;"/>
   <text width="122" height="20" x="985" y="498" style="fill:black;" font-family="Arial" font-size="16px">type_id</text>
   <rect width="122" height="20" x="980" y="504" style="fill:none;stroke:black;"/>
   <text width="122" height="20" x="985" y="518" style="fill:black;" font-family="Arial" font-size="16px">parties_involved</text>
   <rect width="122" height="20" x="980" y="524" style="fill:none;stroke:black;"/>
   <text width="122" height="20" x="985" y="538" style="fill:black;" font-family="Arial" font-size="16px">status</text>
   <rect width="122" height="20" x="980" y="544" style="fill:none;stroke:black;"/>
   <text width="122" height="20" x="985" y="558" style="fill:black;" font-family="Arial" font-size="16px">filed_by</text>
   <rect width="122" height="20" x="980" y="564" style="fill:none;stroke:black;"/>
   <text width="122" height="20" x="985" y="578" style="fill:black;" font-family="Arial" font-size="16px">created_at</text>
   <rect width="122" height="20" x="980" y="584" style="fill:none;stroke:black;"/>
   <text width="122" height="20" x="985" y="598" style="fill:black;" font-family="Arial" font-size="16px">updated_at</text>
   <rect width="88" height="20" x="345" y="170" style="fill:#007;stroke:black;"/>
   <text width="88" height="20" x="350" y="184" style="fill:#fff;" font-family="Arial" font-size="16px"> case_types</text>
   <rect width="88" height="20" x="345" y="190" style="fill:#aea;stroke:black;"/>
   <text width="88" height="20" x="350" y="204" style="fill:black;" font-family="Arial" font-size="16px">type_id</text>
   <rect width="88" height="20" x="345" y="210" style="fill:none;stroke:black;"/>
   <text width="88" height="20" x="350" y="224" style="fill:black;" font-family="Arial" font-size="16px">type_name</text>
   <rect width="88" height="20" x="345" y="230" style="fill:none;stroke:black;"/>
   <text width="88" height="20" x="350" y="244" style="fill:black;" font-family="Arial" font-size="16px">description</text>
   <rect width="100" height="20" x="28" y="502" style="fill:#007;stroke:black;"/>
   <text width="100" height="20" x="33" y="516" style="fill:#fff;" font-family="Arial" font-size="16px"> courtrooms</text>
   <rect width="100" height="20" x="28" y="522" style="fill:#aea;stroke:black;"/>
   <text width="100" height="20" x="33" y="536" style="fill:black;" font-family="Arial" font-size="16px">courtroom_id</text>
   <rect width="100" height="20" x="28" y="542" style="fill:none;stroke:black;"/>
   <text width="100" height="20" x="33" y="556" style="fill:black;" font-family="Arial" font-size="16px">name</text>
   <rect width="100" height="20" x="28" y="562" style="fill:none;stroke:black;"/>
   <text width="100" height="20" x="33" y="576" style="fill:black;" font-family="Arial" font-size="16px">capacity</text>
   <rect width="100" height="20" x="28" y="582" style="fill:none;stroke:black;"/>
   <text width="100" height="20" x="33" y="596" style="fill:black;" font-family="Arial" font-size="16px">availability</text>
   <rect width="100" height="20" x="28" y="602" style="fill:none;stroke:black;"/>
   <text width="100" height="20" x="33" y="616" style="fill:black;" font-family="Arial" font-size="16px">created_at</text>
   <rect width="100" height="20" x="28" y="622" style="fill:none;stroke:black;"/>
   <text width="100" height="20" x="33" y="636" style="fill:black;" font-family="Arial" font-size="16px">updated_at</text>
   <rect width="125" height="20" x="1026" y="250" style="fill:#007;stroke:black;"/>
   <text width="125" height="20" x="1031" y="264" style="fill:#fff;" font-family="Arial" font-size="16px"> documents</text>
   <rect width="125" height="20" x="1026" y="270" style="fill:#aea;stroke:black;"/>
   <text width="125" height="20" x="1031" y="284" style="fill:black;" font-family="Arial" font-size="16px">document_id</text>
   <rect width="125" height="20" x="1026" y="290" style="fill:none;stroke:black;"/>
   <text width="125" height="20" x="1031" y="304" style="fill:black;" font-family="Arial" font-size="16px">case_id</text>
   <rect width="125" height="20" x="1026" y="310" style="fill:none;stroke:black;"/>
   <text width="125" height="20" x="1031" y="324" style="fill:black;" font-family="Arial" font-size="16px">uploaded_by</text>
   <rect width="125" height="20" x="1026" y="330" style="fill:none;stroke:black;"/>
   <text width="125" height="20" x="1031" y="344" style="fill:black;" font-family="Arial" font-size="16px">document_name</text>
   <rect width="125" height="20" x="1026" y="350" style="fill:none;stroke:black;"/>
   <text width="125" height="20" x="1031" y="364" style="fill:black;" font-family="Arial" font-size="16px">file_path</text>
   <rect width="125" height="20" x="1026" y="370" style="fill:none;stroke:black;"/>
   <text width="125" height="20" x="1031" y="384" style="fill:black;" font-family="Arial" font-size="16px">upload_date</text>
   <rect width="73" height="20" x="716" y="538" style="fill:#007;stroke:black;"/>
   <text width="73" height="20" x="721" y="552" style="fill:#fff;" font-family="Arial" font-size="16px"> fines</text>
   <rect width="73" height="20" x="716" y="558" style="fill:#aea;stroke:black;"/>
   <text width="73" height="20" x="721" y="572" style="fill:black;" font-family="Arial" font-size="16px">fine_id</text>
   <rect width="73" height="20" x="716" y="578" style="fill:none;stroke:black;"/>
   <text width="73" height="20" x="721" y="592" style="fill:black;" font-family="Arial" font-size="16px">case_id</text>
   <rect width="73" height="20" x="716" y="598" style="fill:none;stroke:black;"/>
   <text width="73" height="20" x="721" y="612" style="fill:black;" font-family="Arial" font-size="16px">user_id</text>
   <rect width="73" height="20" x="716" y="618" style="fill:none;stroke:black;"/>
   <text width="73" height="20" x="721" y="632" style="fill:black;" font-family="Arial" font-size="16px">fine_type</text>
   <rect width="73" height="20" x="716" y="638" style="fill:none;stroke:black;"/>
   <text width="73" height="20" x="721" y="652" style="fill:black;" font-family="Arial" font-size="16px">amount</text>
   <rect width="73" height="20" x="716" y="658" style="fill:none;stroke:black;"/>
   <text width="73" height="20" x="721" y="672" style="fill:black;" font-family="Arial" font-size="16px">due_date</text>
   <rect width="73" height="20" x="716" y="678" style="fill:none;stroke:black;"/>
   <text width="73" height="20" x="721" y="692" style="fill:black;" font-family="Arial" font-size="16px">status</text>
   <rect width="100" height="20" x="1045" y="20" style="fill:#007;stroke:black;"/>
   <text width="100" height="20" x="1050" y="34" style="fill:#fff;" font-family="Arial" font-size="16px"> hearings</text>
   <rect width="100" height="20" x="1045" y="40" style="fill:#aea;stroke:black;"/>
   <text width="100" height="20" x="1050" y="54" style="fill:black;" font-family="Arial" font-size="16px">hearing_id</text>
   <rect width="100" height="20" x="1045" y="60" style="fill:none;stroke:black;"/>
   <text width="100" height="20" x="1050" y="74" style="fill:black;" font-family="Arial" font-size="16px">case_id</text>
   <rect width="100" height="20" x="1045" y="80" style="fill:none;stroke:black;"/>
   <text width="100" height="20" x="1050" y="94" style="fill:black;" font-family="Arial" font-size="16px">courtroom_id</text>
   <rect width="100" height="20" x="1045" y="100" style="fill:none;stroke:black;"/>
   <text width="100" height="20" x="1050" y="114" style="fill:black;" font-family="Arial" font-size="16px">judge_id</text>
   <rect width="100" height="20" x="1045" y="120" style="fill:none;stroke:black;"/>
   <text width="100" height="20" x="1050" y="134" style="fill:black;" font-family="Arial" font-size="16px">date</text>
   <rect width="100" height="20" x="1045" y="140" style="fill:none;stroke:black;"/>
   <text width="100" height="20" x="1050" y="154" style="fill:black;" font-family="Arial" font-size="16px">time</text>
   <rect width="100" height="20" x="1045" y="160" style="fill:none;stroke:black;"/>
   <text width="100" height="20" x="1050" y="174" style="fill:black;" font-family="Arial" font-size="16px">duration</text>
   <rect width="100" height="20" x="1045" y="180" style="fill:none;stroke:black;"/>
   <text width="100" height="20" x="1050" y="194" style="fill:black;" font-family="Arial" font-size="16px">status</text>
   <rect width="100" height="20" x="353" y="306" style="fill:#007;stroke:black;"/>
   <text width="100" height="20" x="358" y="320" style="fill:#fff;" font-family="Arial" font-size="16px"> invoices</text>
   <rect width="100" height="20" x="353" y="326" style="fill:#aea;stroke:black;"/>
   <text width="100" height="20" x="358" y="340" style="fill:black;" font-family="Arial" font-size="16px">invoice_id</text>
   <rect width="100" height="20" x="353" y="346" style="fill:none;stroke:black;"/>
   <text width="100" height="20" x="358" y="360" style="fill:black;" font-family="Arial" font-size="16px">user_id</text>
   <rect width="100" height="20" x="353" y="366" style="fill:none;stroke:black;"/>
   <text width="100" height="20" x="358" y="380" style="fill:black;" font-family="Arial" font-size="16px">fines</text>
   <rect width="100" height="20" x="353" y="386" style="fill:none;stroke:black;"/>
   <text width="100" height="20" x="358" y="400" style="fill:black;" font-family="Arial" font-size="16px">total_amount</text>
   <rect width="100" height="20" x="353" y="406" style="fill:none;stroke:black;"/>
   <text width="100" height="20" x="358" y="420" style="fill:black;" font-family="Arial" font-size="16px">status</text>
   <rect width="100" height="20" x="353" y="426" style="fill:none;stroke:black;"/>
   <text width="100" height="20" x="358" y="440" style="fill:black;" font-family="Arial" font-size="16px">generated_at</text>
   <rect width="104" height="20" x="418" y="528" style="fill:#007;stroke:black;"/>
   <text width="104" height="20" x="423" y="542" style="fill:#fff;" font-family="Arial" font-size="16px"> notifications</text>
   <rect width="104" height="20" x="418" y="548" style="fill:#aea;stroke:black;"/>
   <text width="104" height="20" x="423" y="562" style="fill:black;" font-family="Arial" font-size="16px">notification_id</text>
   <rect width="104" height="20" x="418" y="568" style="fill:none;stroke:black;"/>
   <text width="104" height="20" x="423" y="582" style="fill:black;" font-family="Arial" font-size="16px">user_id</text>
   <rect width="104" height="20" x="418" y="588" style="fill:none;stroke:black;"/>
   <text width="104" height="20" x="423" y="602" style="fill:black;" font-family="Arial" font-size="16px">message</text>
   <rect width="104" height="20" x="418" y="608" style="fill:none;stroke:black;"/>
   <text width="104" height="20" x="423" y="622" style="fill:black;" font-family="Arial" font-size="16px">status</text>
   <rect width="104" height="20" x="418" y="628" style="fill:none;stroke:black;"/>
   <text width="104" height="20" x="423" y="642" style="fill:black;" font-family="Arial" font-size="16px">created_at</text>
   <rect width="107" height="20" x="58" y="336" style="fill:#007;stroke:black;"/>
   <text width="107" height="20" x="63" y="350" style="fill:#fff;" font-family="Arial" font-size="16px"> payments</text>
   <rect width="107" height="20" x="58" y="356" style="fill:#aea;stroke:black;"/>
   <text width="107" height="20" x="63" y="370" style="fill:black;" font-family="Arial" font-size="16px">payment_id</text>
   <rect width="107" height="20" x="58" y="376" style="fill:none;stroke:black;"/>
   <text width="107" height="20" x="63" y="390" style="fill:black;" font-family="Arial" font-size="16px">invoice_id</text>
   <rect width="107" height="20" x="58" y="396" style="fill:none;stroke:black;"/>
   <text width="107" height="20" x="63" y="410" style="fill:black;" font-family="Arial" font-size="16px">amount_paid</text>
   <rect width="107" height="20" x="58" y="416" style="fill:none;stroke:black;"/>
   <text width="107" height="20" x="63" y="430" style="fill:black;" font-family="Arial" font-size="16px">payment_date</text>
   <rect width="107" height="20" x="58" y="436" style="fill:none;stroke:black;"/>
   <text width="107" height="20" x="63" y="450" style="fill:black;" font-family="Arial" font-size="16px">status</text>
   <rect width="88" height="20" x="44" y="44" style="fill:#007;stroke:black;"/>
   <text width="88" height="20" x="49" y="58" style="fill:#fff;" font-family="Arial" font-size="16px"> roles</text>
   <rect width="88" height="20" x="44" y="64" style="fill:#aea;stroke:black;"/>
   <text width="88" height="20" x="49" y="78" style="fill:black;" font-family="Arial" font-size="16px">role_id</text>
   <rect width="88" height="20" x="44" y="84" style="fill:none;stroke:black;"/>
   <text width="88" height="20" x="49" y="98" style="fill:black;" font-family="Arial" font-size="16px">role_name</text>
   <rect width="88" height="20" x="44" y="104" style="fill:none;stroke:black;"/>
   <text width="88" height="20" x="49" y="118" style="fill:black;" font-family="Arial" font-size="16px">description</text>
   <rect width="86" height="20" x="634" y="0" style="fill:#007;stroke:black;"/>
   <text width="86" height="20" x="639" y="14" style="fill:#fff;" font-family="Arial" font-size="16px"> users</text>
   <rect width="86" height="20" x="634" y="20" style="fill:#aea;stroke:black;"/>
   <text width="86" height="20" x="639" y="34" style="fill:black;" font-family="Arial" font-size="16px">user_id</text>
   <rect width="86" height="20" x="634" y="40" style="fill:none;stroke:black;"/>
   <text width="86" height="20" x="639" y="54" style="fill:black;" font-family="Arial" font-size="16px">name</text>
   <rect width="86" height="20" x="634" y="60" style="fill:none;stroke:black;"/>
   <text width="86" height="20" x="639" y="74" style="fill:black;" font-family="Arial" font-size="16px">email</text>
   <rect width="86" height="20" x="634" y="80" style="fill:none;stroke:black;"/>
   <text width="86" height="20" x="639" y="94" style="fill:black;" font-family="Arial" font-size="16px">password</text>
   <rect width="86" height="20" x="634" y="100" style="fill:none;stroke:black;"/>
   <text width="86" height="20" x="639" y="114" style="fill:black;" font-family="Arial" font-size="16px">role</text>
   <rect width="86" height="20" x="634" y="120" style="fill:none;stroke:black;"/>
   <text width="86" height="20" x="639" y="134" style="fill:black;" font-family="Arial" font-size="16px">created_at</text>
   <rect width="86" height="20" x="634" y="140" style="fill:none;stroke:black;"/>
   <text width="86" height="20" x="639" y="154" style="fill:black;" font-family="Arial" font-size="16px">updated_at</text>
</svg>
